<svg xmlns="http://www.w3.org/2000/svg" version="1.1" xmlns:xlink="http://www.w3.org/1999/xlink" xmlns:svgjs="http://svgjs.dev/svgjs" viewBox="0 0 800 800"><defs><linearGradient x1="50%" y1="0%" x2="50%" y2="100%" id="ccchaos-grad"><stop stop-color="hsl(206, 75%, 49%)" stop-opacity="1" offset="0%"></stop><stop stop-color="hsl(331, 90%, 56%)" stop-opacity="1" offset="100%"></stop></linearGradient></defs><g stroke-width="2" stroke="hsl(255, 100%, 100%)" fill="none" stroke-linecap="round"><path d="M377.96 68.2Q386.07 76 394.41 83.82 402.99 91.56 411.82 99.1 420.91 106.33 430.28 113.13 439.92 119.44 449.85 125.18 460.05 130.32 470.52 134.83 481.25 138.73 492.24 142.06 503.46 144.89 514.89 147.3 526.53 149.41 538.33 151.34 550.28 153.23 562.34 155.23 574.48 157.48 586.68 160.1 598.88 163.23 611.06 166.97 623.18 171.38 635.21 176.53 647.09 182.42 658.81 189.04 670.32 196.35 681.59 204.25 692.59 212.66 703.28 221.43 713.64 230.41 723.65 239.44 723.7 249.85 722.2 260.26 719.23 270.68 714.9 281.09 709.4 291.51 702.94 301.92 695.78 312.34 688.23 322.75 680.59 333.16 673.16 343.58 666.26 353.99 660.17 364.41 655.13 374.82 651.35 385.24 648.98 395.65 648.12 406.06 648.81 416.48 651.02 426.89 654.65 437.31 659.57 447.72 665.56 458.14 672.38 468.55 679.76 478.97 687.4 489.38 694.98 499.79 702.19 510.21 708.74 520.62 714.36 531.04 718.83 541.45 721.95 551.87 718.7 566.87 703.52 570.09 692.9 568.87 681.97 568.08 670.76 567.99 659.31 568.82 647.64 570.79 635.79 574.04 623.8 578.67 611.71 584.72 599.55 592.17 587.35 600.93 575.17 610.87 563.02 621.78 550.95 633.44 538.98 645.57 527.16 657.86 515.5 670.02 504.02 681.74 492.76 692.72 481.73 702.71 470.95 711.49 460.43 718.88 450.18 724.77 440.2 729.13 430.5 731.95 421.08 733.34 411.93 733.43 394.54 730.34 377.86 725.67 369.11 713.01 360.59 700.95 352.28 689.78 344.18 679.73 336.26 671.02 328.5 663.78 313.45 654.68 298.68 649.99 284.17 651.09 269.68 654.21 254.99 657.76 240.08 659.76 224.64 656.79 208.81 649.84 200.66 643.89 192.36 636.57 183.92 627.98 175.33 618.29 166.6 607.69 157.73 596.44 148.74 584.81 139.63 573.08 130.41 561.52 121.1 550.42 121.07 540.29 120.76 530.15 120.17 520.01 119.33 509.87 118.28 499.73 117.04 489.59 115.69 479.46 114.26 469.32 112.82 459.18 111.43 449.04 110.15 438.9 109.02 428.76 108.1 418.63 107.41 408.49 107 398.35 106.87 388.21 107.03 378.07 107.47 367.94 108.19 357.8 109.13 347.66 110.28 337.52 111.58 327.38 112.98 317.25 114.42 307.11 115.84 296.97 117.18 286.83 118.4 276.7 119.44 266.56 120.25 256.42 120.81 246.28 125.73 230.33 139.57 223.17 148.66 221.8 157.63 220.26 166.48 218.37 175.18 216.02 183.75 213.09 192.17 209.49 200.45 205.18 208.58 200.14 216.57 194.36 224.43 187.91 232.16 180.84 239.77 173.27 247.28 165.29 254.71 157.04 262.06 148.67 269.35 140.31 276.61 132.11 283.86 124.18 291.11 116.64 298.4 109.59 305.74 103.09 313.16 97.19 320.68 91.9 328.33 87.21 336.12 83.08 344.08 79.46 352.23 76.27 360.58 73.4 373.55 69.48 377.96 68.2" stroke-dasharray="5 1" transform="rotate(0, 400, 400)" opacity="0.89"></path><path d="M377.52 80.85Q385.86 88.43 394.43 96.05 403.24 103.6 412.29 110.96 421.59 118.03 431.13 124.72 440.92 130.95 450.95 136.65 461.22 141.79 471.71 146.32 482.41 150.27 493.31 153.66 504.38 156.53 515.61 158.96 526.97 161.05 538.44 162.9 549.99 164.63 561.6 166.38 573.22 168.27 584.84 170.43 596.41 172.98 607.91 176.04 619.31 179.68 630.57 183.98 641.66 188.97 652.56 194.68 663.22 201.07 673.63 208.12 683.77 215.74 693.6 223.85 703.1 232.32 712.27 241.02 711.44 250.94 709.24 260.86 705.74 270.78 701.08 280.7 695.44 290.62 689.03 300.54 682.09 310.45 674.88 320.37 667.67 330.29 660.74 340.21 654.35 350.13 648.74 360.05 644.11 369.97 640.66 379.89 638.5 389.81 637.72 399.73 638.34 409.65 640.35 419.57 643.66 429.49 648.16 439.41 653.67 449.33 659.99 459.25 666.87 469.17 674.06 479.09 681.28 489.01 688.27 498.93 694.75 508.85 700.49 518.77 705.27 528.69 708.91 538.61 707.21 552.88 693.73 556.2 683.97 555.6 673.91 555.66 663.56 556.58 652.95 558.53 642.11 561.66 631.07 566.04 619.85 571.71 608.49 578.66 597.02 586.83 585.47 596.1 573.87 606.3 562.25 617.24 550.65 628.69 539.1 640.4 527.62 652.08 516.24 663.49 504.99 674.34 493.89 684.4 482.96 693.46 472.22 701.34 461.69 707.92 451.38 713.1 441.3 716.88 431.46 719.27 421.87 720.38 412.52 720.34 403.42 719.34 394.56 717.61 385.94 715.41 377.55 713.03 369.66 700.94 361.97 689.39 354.45 678.63 347.09 668.87 339.86 660.32 332.74 653.08 318.8 643.51 305.02 638.04 291.27 638.19 277.43 640.55 263.26 644.02 248.79 646.57 233.73 645.26 218.27 640.58 210.3 636.04 202.18 630.21 193.93 623.12 185.53 614.89 177.01 605.64 168.36 595.58 159.59 584.9 150.72 573.84 141.76 562.64 132.71 551.57 132.5 541.73 132.02 531.89 131.26 522.06 130.27 512.22 129.09 502.38 127.74 492.55 126.3 482.71 124.8 472.87 123.31 463.03 121.89 453.2 120.58 443.36 119.44 433.52 118.51 423.69 117.82 413.85 117.41 404.01 117.28 394.18 117.44 384.34 117.89 374.5 118.6 364.67 119.56 354.83 120.72 344.99 122.04 335.15 123.48 325.32 124.97 315.48 126.46 305.64 127.9 295.81 129.23 285.97 130.4 276.13 131.36 266.3 132.08 256.46 137.14 241.11 150.69 234.36 159.54 232.93 168.28 231.17 176.91 228.95 185.41 226.18 193.78 222.78 202.01 218.71 210.1 213.93 218.05 208.47 225.87 202.34 233.54 195.62 241.08 188.39 248.49 180.74 255.79 172.8 262.97 164.69 270.07 156.53 277.08 148.47 284.03 140.61 290.94 133.07 297.81 125.95 304.68 119.32 318.5 108.02 332.49 98.45 346.96 91.47 361.85 85.65 373.55 82.02 377.52 80.85" stroke-dasharray="7 7" transform="rotate(4.04, 400, 400)" opacity="0.29"></path><path d="M378.47 93.49Q387.01 100.86 395.77 108.27 404.75 115.61 413.95 122.78 423.36 129.7 432.99 136.26 442.82 142.41 452.86 148.06 463.07 153.18 473.46 157.74 484.01 161.74 494.7 165.19 505.5 168.13 516.4 170.61 527.38 172.71 538.41 174.53 549.46 176.16 560.51 177.72 571.53 179.33 582.5 181.11 593.38 183.18 604.15 185.63 614.78 188.57 625.25 192.08 635.53 196.2 645.59 200.99 655.41 206.44 664.98 212.56 674.27 219.29 683.26 226.59 691.95 234.36 700.32 242.49 698.72 251.93 695.92 261.36 692 270.79 687.11 280.23 681.42 289.66 675.12 299.09 668.43 308.52 661.59 317.96 654.84 327.39 648.4 336.82 642.5 346.25 637.35 355.69 633.13 365.12 629.98 374.55 628.02 383.99 627.31 393.42 627.87 402.85 629.69 412.28 632.71 421.72 636.81 431.15 641.86 440.58 647.68 450.01 654.06 459.45 660.79 468.88 667.64 478.31 674.35 487.74 680.71 497.18 686.49 506.61 691.48 516.04 695.51 525.47 695.18 539.21 683.29 543.14 674.37 543.4 665.15 544.47 655.65 546.49 645.88 549.58 635.88 553.81 625.66 559.22 615.24 565.8 604.65 573.48 593.92 582.18 583.06 591.75 572.12 602.04 561.12 612.84 550.08 623.94 539.04 635.11 528.01 646.1 517.03 656.69 506.12 666.66 495.3 675.8 484.59 683.95 474.02 690.97 463.6 696.77 453.35 701.29 443.28 704.54 433.41 706.55 423.74 707.41 414.28 707.26 405.04 706.26 396.01 704.63 387.2 702.59 378.61 700.39 371.52 688.86 364.56 677.82 357.74 667.48 351.01 658.03 344.38 649.65 337.81 642.45 324.8 632.5 311.81 626.32 298.68 625.54 285.37 627.06 271.61 630.26 257.51 633.08 242.78 633.09 227.64 630.36 219.84 627.1 211.89 622.66 203.82 617.04 195.61 610.29 187.29 602.49 178.86 593.76 170.32 584.27 161.69 574.18 152.98 563.71 144.19 553.07 143.8 543.53 143.13 534 142.22 524.46 141.09 514.93 139.78 505.4 138.34 495.86 136.82 486.33 135.27 476.79 133.75 467.26 132.3 457.73 130.98 448.19 129.84 438.66 128.91 429.12 128.23 419.59 127.81 410.06 127.69 400.52 127.85 390.99 128.29 381.45 129 371.92 129.96 362.39 131.13 352.85 132.46 343.32 133.92 333.78 135.45 324.25 137 314.71 138.51 305.18 139.94 295.65 141.23 286.11 142.34 276.58 143.22 267.04 148.42 252.17 161.68 245.49 170.29 243.81 178.81 241.69 187.22 239.03 195.52 235.77 203.7 231.87 211.75 227.31 219.66 222.1 227.45 216.25 235.09 209.84 242.6 202.92 249.98 195.59 257.22 187.94 264.33 180.11 271.33 172.19 278.22 164.3 285.01 156.57 291.71 149.1 298.34 141.98 304.91 135.29 311.44 129.09 324.44 118.59 337.48 109.73 350.77 103.28 364.34 97.92 374.9 94.57 378.47 93.49" stroke-dasharray="7 5" transform="rotate(8.08, 400, 400)" opacity="0.86"></path><path d="M380.74 106.14Q389.43 113.29 398.3 120.48 407.37 127.61 416.62 134.59 426.05 141.33 435.65 147.76 445.41 153.81 455.33 159.41 465.38 164.51 475.54 169.09 485.82 173.14 496.18 176.65 506.6 179.67 517.07 182.22 527.56 184.38 538.05 186.2 548.52 187.79 558.94 189.24 569.29 190.65 579.55 192.13 589.69 193.79 599.7 195.74 609.54 198.06 619.2 200.85 628.65 204.16 637.89 208.07 646.88 212.59 655.63 217.75 664.1 223.52 672.3 229.9 682.89 244.98 682.28 262.11 678.05 271.07 673.02 280.03 667.36 288.99 661.23 297.94 654.84 306.9 648.39 315.86 642.09 324.82 636.14 333.78 630.72 342.74 626.02 351.7 622.18 360.65 619.32 369.61 617.55 378.57 616.9 387.53 617.41 396.49 619.05 405.45 621.78 414.4 625.5 423.36 630.11 432.32 635.45 441.28 641.34 450.24 647.61 459.2 654.05 468.15 660.46 477.11 666.63 486.07 672.36 495.03 677.48 503.99 681.81 512.94 673.37 529.42 655.69 534.67 647.01 537.81 638.08 541.99 628.9 547.23 619.5 553.52 609.89 560.82 600.1 569.04 590.14 578.07 580.04 587.77 569.81 597.96 559.49 608.47 549.09 619.08 538.63 629.61 528.16 639.84 517.67 649.58 507.2 658.65 496.78 666.89 486.41 674.16 476.13 680.36 465.94 685.43 455.87 689.34 445.93 692.1 436.14 693.76 426.5 694.4 417.04 694.16 407.75 693.18 398.64 691.64 389.73 689.76 381 687.73 374.59 676.77 368.27 666.23 362.02 656.31 355.83 647.19 349.69 639 343.56 631.87 331.29 621.61 318.93 614.81 306.28 613.13 293.37 613.78 279.94 616.54 266.14 619.38 251.7 620.37 236.86 619.23 221.37 613.39 205.52 604.38 197.41 598.04 189.19 590.74 180.88 582.59 172.49 573.7 164.03 564.24 155.52 554.38 154.93 545.16 154.09 535.94 153.02 526.72 151.76 517.49 150.35 508.27 148.83 499.05 147.25 489.83 145.66 480.6 144.11 471.38 142.66 462.16 141.34 452.94 140.21 443.71 139.29 434.49 138.62 425.27 138.21 416.05 138.08 406.82 138.24 397.6 138.68 388.38 139.39 379.16 140.33 369.93 141.49 360.71 142.83 351.49 144.3 342.27 145.85 333.04 147.44 323.82 149.02 314.6 150.53 305.37 151.92 296.15 153.16 286.93 154.21 277.71 159.54 263.22 172.51 256.32 189.12 251.35 205.46 244.7 213.45 240.29 221.32 235.27 229.07 229.66 236.69 223.51 244.18 216.87 251.55 209.83 258.77 202.48 265.87 194.92 272.84 187.26 279.68 179.59 286.41 172.03 293.02 164.68 299.53 157.62 305.94 150.94 318.51 139.19 330.9 128.96 343.18 121.29 355.47 114.97 374.37 108.22 380.74 106.14" stroke-dasharray="5 1" transform="rotate(12.12, 400, 400)" opacity="0.21"></path><path d="M384.21 118.78Q401.83 132.66 420.07 146.35 438.86 159.21 458.11 170.67 477.7 180.34 497.51 188.02 517.39 193.77 537.18 197.87 556.73 200.86 575.88 203.42 594.47 206.3 612.37 210.26 629.44 215.94 645.59 223.78 660.73 233.97 674.82 246.41 668.37 263.42 658.85 280.42 647.38 297.43 635.28 314.43 623.97 331.44 614.74 348.44 608.68 365.45 606.49 382.45 608.42 399.46 614.25 416.46 623.3 433.47 634.53 450.47 646.62 467.47 658.17 484.48 667.84 501.48 674.52 518.49 660.56 520.8 645.54 526.4 629.52 535.75 612.57 548.85 594.78 565.23 576.27 584.03 557.2 604.03 537.71 623.86 517.95 642.15 498.09 657.67 478.28 669.53 458.67 677.27 439.39 680.94 420.55 681.07 402.26 678.68 384.56 675.09 372.9 654.64 361.36 636.36 349.81 621.36 338.13 610.36 326.22 603.54 313.97 600.6 301.32 600.76 288.21 602.87 274.6 605.59 260.48 607.49 245.86 607.32 230.77 604.06 215.23 597.12 199.33 586.35 183.12 572.08 166.68 555.06 164.89 537.26 162.31 519.47 159.22 501.67 155.99 483.87 152.99 466.08 150.57 448.28 149.01 430.48 148.49 412.69 149.08 394.89 150.7 377.09 153.17 359.3 156.19 341.5 159.43 323.7 162.49 305.9 165.04 288.11 166.76 270.31 183.17 266.57 199.34 260.86 215.21 252.85 230.69 242.55 245.73 230.23 260.3 216.39 274.36 201.7 287.92 186.92 300.99 172.8 313.6 159.95 325.81 148.83 337.71 139.67 349.38 132.43 360.94 126.86 378.36 120.64 384.21 118.78" stroke-dasharray="6 7" transform="rotate(16.16, 400, 400)" opacity="0.52"></path><path d="M388.65 131.42Q406.12 144.83 424.05 158.08 442.36 170.59 460.94 181.86 479.69 191.49 498.48 199.28 517.18 205.21 535.66 209.5 553.78 212.55 571.42 214.92 588.44 217.27 604.75 220.3 620.26 224.62 634.89 230.75 648.6 239 661.37 249.44 654.23 265.58 644.64 281.71 633.59 297.85 622.28 313.98 611.88 330.11 603.51 346.25 598.05 362.38 596.08 378.51 597.81 394.65 603.05 410.78 611.25 426.91 621.54 443.05 632.83 459.18 643.93 475.31 653.66 491.45 660.99 507.58 648.34 511.99 634.75 519.68 620.23 530.78 604.84 545.06 588.64 561.9 571.71 580.39 554.16 599.43 536.1 617.8 517.68 634.36 499.01 648.15 480.24 658.49 461.49 665.09 442.9 668.08 424.57 668 406.6 665.73 389.07 662.45 378.24 643.04 367.37 625.54 356.35 610.91 345.08 599.82 333.49 592.49 321.51 588.76 309.08 588.03 296.18 589.42 282.8 591.8 268.93 593.96 254.59 594.74 239.83 593.17 224.7 588.52 209.24 580.47 193.53 569.03 177.65 554.63 175.53 537.52 172.72 520.41 169.52 503.29 166.25 486.18 163.28 469.06 160.91 451.95 159.4 434.84 158.9 417.72 159.47 400.61 161.05 383.5 163.47 366.38 166.47 349.27 169.74 332.15 172.92 315.04 175.7 297.92 177.76 280.81 193.62 276.04 209.29 269.21 224.71 260.2 239.8 249.16 254.51 236.46 268.79 222.63 282.6 208.32 295.93 194.22 308.78 180.95 321.16 169.03 333.1 158.81 344.66 150.44 355.91 143.85 366.92 138.78 383.22 133.12 388.65 131.42" stroke-dasharray="3 1" transform="rotate(20.200000000000003, 400, 400)" opacity="0.10"></path><path d="M393.78 144.06Q410.87 156.99 428.25 169.78 445.85 181.92 463.56 192.97 481.27 202.54 498.89 210.41 516.29 216.54 533.36 221.05 550 224.24 566.1 226.57 581.58 228.58 596.36 230.89 610.37 234.09 623.58 238.7 635.97 245.11 647.52 253.53 639.92 268.84 630.4 284.15 619.88 299.45 609.37 314.76 599.88 330.06 592.33 345.37 587.44 360.67 585.67 375.98 587.21 391.28 591.89 406.59 599.28 421.89 608.66 437.2 619.13 452.5 629.68 467.8 639.3 483.11 647.07 498.41 635.62 504.91 623.34 514.45 610.24 526.94 596.34 541.97 581.67 558.86 566.29 576.73 550.27 594.57 533.71 611.37 516.7 626.19 499.35 638.3 481.77 647.22 464.08 652.79 446.38 655.18 428.78 654.92 411.38 652.8 394.26 649.81 384.03 631.44 373.62 614.72 362.95 600.52 351.96 589.41 340.59 581.67 328.8 577.21 316.55 575.62 303.83 576.22 290.66 578.1 277.04 580.25 263.01 581.64 248.61 581.36 233.88 578.65 218.9 573.05 203.72 564.36 188.4 552.74 185.99 536.35 183 519.95 179.72 503.56 176.46 487.17 173.54 470.78 171.25 454.39 169.79 438 169.31 421.61 169.86 405.21 171.38 388.82 173.73 372.43 176.68 356.04 179.95 339.65 183.22 323.25 186.18 306.86 188.55 290.47 203.83 284.55 218.99 276.61 233.93 266.72 248.61 255.12 262.97 242.25 276.95 228.62 290.51 214.85 303.63 201.53 316.29 189.17 328.48 178.2 340.23 168.88 351.56 161.28 362.52 155.32 373.16 150.74 388.67 145.6 393.78 144.06" stroke-dasharray="9 8" transform="rotate(24.24, 400, 400)" opacity="0.32"></path><path d="M399.31 156.71Q415.77 169.12 432.38 181.44 449.06 193.2 465.71 203.99 482.24 213.47 498.56 221.41 514.57 227.72 530.19 232.48 545.33 235.88 559.92 238.29 573.9 240.14 587.21 241.96 599.82 244.28 611.71 247.61 622.88 252.37 633.34 258.86 625.47 273.38 616.18 287.89 606.26 302.41 596.58 316.93 587.98 331.45 581.2 345.97 576.83 360.48 575.26 375 576.62 389.52 580.79 404.04 587.41 418.55 595.9 433.07 605.53 447.59 615.46 462.11 624.83 476.62 632.82 491.14 622.45 499.53 611.38 510.6 599.59 524.06 587.08 539.41 573.87 555.97 559.99 572.91 545.49 589.37 530.43 604.53 514.89 617.64 498.93 628.15 482.67 635.75 466.17 640.38 449.55 642.26 432.89 641.85 416.28 639.87 399.8 637.17 389.95 619.82 379.84 603.91 369.4 590.17 358.58 579.13 347.35 571.06 335.69 565.96 323.59 563.56 311.06 563.34 298.11 564.59 284.76 566.49 271.06 568.17 257.04 568.79 242.77 567.63 228.28 564.14 213.66 557.99 198.94 549.1 196.27 533.48 193.14 517.85 189.83 502.22 186.61 486.59 183.78 470.97 181.57 455.34 180.17 439.71 179.72 424.08 180.24 408.45 181.7 392.83 183.97 377.2 186.84 361.57 190.07 345.94 193.38 330.31 196.49 314.68 199.11 299.05 213.81 291.96 228.41 283.03 242.86 272.44 257.1 260.5 271.07 247.66 284.72 234.43 298.02 221.34 310.91 208.88 323.39 197.49 335.43 187.48 347.04 179.05 358.22 172.21 368.99 166.85 379.4 162.73 394.39 158.1 399.31 156.71" stroke-dasharray="5 5" transform="rotate(28.28, 400, 400)" opacity="0.80"></path><path d="M404.87 169.35Q420.5 181.25 436.14 193.07 451.72 204.42 467.17 214.92 482.4 224.27 497.34 232.25 511.92 238.74 526.07 243.75 539.74 247.42 552.86 250 565.41 251.85 577.34 253.4 588.66 255.1 599.34 257.41 609.4 260.77 618.88 265.51 610.95 279.28 602 293.04 592.75 306.81 583.91 320.58 576.16 334.34 570.12 348.11 566.25 361.88 564.85 375.65 566.05 389.41 569.73 403.18 575.62 416.95 583.25 430.72 592.03 444.49 601.28 458.25 610.27 472.02 618.31 485.79 608.91 495.77 598.93 507.94 588.34 521.92 577.12 537.17 565.28 553.04 552.82 568.81 539.79 583.77 526.21 597.24 512.13 608.69 497.62 617.7 482.74 624.1 467.56 627.89 452.15 629.31 436.6 628.8 420.97 626.96 405.35 624.52 395.73 608.2 385.77 593.1 375.45 579.87 364.73 568.97 353.61 560.67 342.07 555.02 330.13 551.86 317.79 550.82 305.09 551.36 292.05 552.83 278.71 554.51 265.12 555.67 251.33 555.63 237.38 553.85 223.34 549.91 209.25 543.59 206.38 528.76 203.16 513.94 199.85 499.11 196.71 484.29 193.98 469.46 191.87 454.63 190.56 439.81 190.13 424.98 190.63 410.16 192.01 395.33 194.17 380.51 196.94 365.68 200.11 350.86 203.42 336.03 206.62 321.21 209.46 306.39 223.53 298.22 237.55 288.47 251.47 277.4 265.23 265.36 278.77 252.78 292.07 240.12 305.06 227.83 317.71 216.32 329.99 205.93 341.88 196.89 353.36 189.32 364.43 183.2 375.09 178.42 385.37 174.74 400.08 170.6 404.87 169.35" stroke-dasharray="8 1" transform="rotate(32.32, 400, 400)" opacity="0.84"></path><path d="M410.14 182Q424.74 193.37 439.25 204.68 453.61 215.59 467.75 225.78 481.61 234.96 495.14 242.93 508.28 249.56 520.99 254.82 533.23 258.79 544.96 261.63 556.16 263.62 566.83 265.08 576.95 266.41 586.54 268 596 278.4 587.9 299.6 579.36 312.64 571.35 325.69 564.43 338.74 559.08 351.79 555.67 364.83 554.45 377.88 555.49 390.93 558.72 403.98 563.92 417.03 570.73 430.08 578.67 443.12 587.19 456.17 595.7 469.22 603.6 482.27 595.07 493.42 586.07 506.22 576.55 520.26 566.51 535.02 555.93 549.9 544.82 564.31 533.17 577.68 521.01 589.48 508.38 599.32 495.31 606.95 481.85 612.25 468.04 615.3 453.95 616.33 439.63 615.74 425.15 614.05 410.57 611.87 401.05 596.55 391.16 582.28 380.9 569.6 370.26 558.91 359.23 550.47 347.83 544.38 336.06 540.54 323.96 538.7 311.54 538.49 298.86 539.38 285.93 540.81 272.82 542.17 259.56 542.87 246.19 542.37 232.77 540.24 219.33 536.16 216.31 522.18 213.06 508.19 209.8 494.2 206.76 480.21 204.16 466.23 202.17 452.24 200.94 438.25 200.54 424.27 201.01 410.28 202.31 396.29 204.36 382.3 207 368.32 210.07 354.33 213.33 340.34 216.57 326.36 219.57 312.37 232.99 303.31 246.4 293 259.74 281.72 272.97 269.83 286.06 257.71 298.94 245.78 311.58 234.4 323.94 223.89 335.99 214.52 347.71 206.44 359.05 199.71 370.02 194.3 380.61 190.07 390.82 186.8 405.4 183.11 410.14 182" stroke-dasharray="0 1" transform="rotate(36.36, 400, 400)" opacity="0.69"></path><path d="M414.77 194.64Q428.21 205.46 441.47 216.24 454.52 226.69 467.3 236.53 479.77 245.52 491.89 253.44 503.63 260.17 514.95 265.66 525.83 269.93 536.26 273.09 546.23 275.32 555.73 276.88 573.18 279.36 589.39 282.75 581.83 295.1 573.9 307.45 566.11 319.8 558.92 332.15 552.79 344.5 548.09 356.86 545.11 369.21 544.04 381.56 544.94 393.91 547.75 406.26 552.31 418.61 558.33 430.96 565.44 443.31 573.2 455.66 581.14 468.01 588.76 480.36 580.99 492.2 572.86 505.17 564.32 518.84 555.34 532.76 545.91 546.41 536.02 559.33 525.67 571.06 514.86 581.23 503.61 589.57 491.95 595.92 479.89 600.24 467.48 602.64 454.76 603.35 441.76 602.71 428.54 601.17 415.14 599.23 405.64 584.9 395.79 571.47 385.57 559.37 375.01 548.96 364.11 540.48 352.87 534.04 341.33 529.61 329.52 527.03 317.46 526.04 305.18 526.26 292.73 527.25 280.14 528.52 267.45 529.57 254.7 529.93 241.94 529.16 229.19 526.93 226.08 513.81 222.85 500.69 219.68 487.57 216.78 474.45 214.32 461.33 212.46 448.21 211.31 435.09 210.95 421.97 211.38 408.85 212.6 395.73 214.52 382.6 217.02 369.48 219.95 356.36 223.13 343.24 226.37 330.12 229.45 317 242.19 307.32 254.95 296.72 267.68 285.5 280.34 274 292.9 262.55 305.32 251.48 317.56 241.1 329.58 231.63 341.35 223.28 352.83 216.13 364.01 210.21 374.86 205.46 385.37 201.76 395.52 198.89 410.05 195.63 414.77 194.64" stroke-dasharray="7 7" transform="rotate(40.400000000000006, 400, 400)" opacity="0.35"></path><path d="M418.5 207.28Q430.67 217.54 442.62 227.77 454.31 237.74 465.73 247.2 476.82 255.94 487.58 263.76 497.97 270.56 507.99 276.24 517.61 280.8 526.85 284.3 543.96 288.37 559.97 290.86 567.36 298.3 560.03 316.44 553 328.1 546.62 339.77 541.24 351.43 537.14 363.1 534.56 374.76 533.63 386.43 534.4 398.1 536.83 409.76 540.79 421.43 546.07 433.09 552.37 444.76 559.35 456.43 566.65 468.09 573.85 479.76 566.77 491.79 559.4 504.45 551.71 517.38 543.68 530.17 535.29 542.42 526.51 553.76 517.35 563.86 507.79 572.48 497.84 579.42 487.52 584.61 476.83 588.06 465.8 589.91 454.44 590.35 442.8 589.69 430.9 588.3 418.78 586.59 409.28 573.25 399.46 560.65 389.33 549.17 378.89 539.11 368.16 530.68 357.16 523.99 345.91 519.07 334.45 515.82 322.81 514.08 311.01 513.58 299.08 513.99 287.07 514.93 275.01 516 262.93 516.8 250.86 516.95 238.83 516.11 235.7 503.88 232.53 491.64 229.5 479.41 226.76 467.17 224.47 454.94 222.75 442.71 221.69 430.47 221.36 418.24 221.76 406 222.88 393.77 224.66 381.53 227 369.3 229.77 357.07 232.83 344.83 236 332.6 239.12 320.37 251.14 310.36 263.21 299.79 275.28 288.91 287.33 278.02 299.31 267.41 311.21 257.32 322.98 247.99 334.59 239.59 346 232.24 357.2 225.99 368.15 220.85 378.83 216.73 389.22 213.51 399.3 211.01 413.78 208.15 418.5 207.28" stroke-dasharray="9 9" transform="rotate(44.44, 400, 400)" opacity="0.99"></path><path d="M421.08 219.93Q431.94 229.6 442.56 239.27 452.91 248.73 462.99 257.78 472.76 266.22 482.22 273.9 491.36 280.7 500.17 286.53 516.64 294.73 532.16 300.23 549.59 308.95 546.31 326.28 540.05 337.27 534.45 348.25 529.77 359.23 526.24 370.22 524.02 381.2 523.22 392.19 523.87 403.17 525.95 414.16 529.36 425.14 533.93 436.12 539.45 447.11 545.66 458.09 552.26 469.08 558.95 480.06 552.46 491.8 545.77 503.75 538.84 515.62 531.65 527.07 524.17 537.8 516.39 547.54 508.3 556.07 499.88 563.22 491.13 568.88 482.05 573.04 472.65 575.75 462.94 577.11 452.92 577.34 442.62 576.69 432.06 575.44 421.25 573.95 411.8 561.58 402.06 549.83 392.06 539 381.82 529.35 371.34 521.05 360.65 514.22 349.78 508.92 338.76 505.1 327.61 502.66 316.35 501.43 305.02 501.16 293.65 501.6 282.26 502.42 270.89 503.31 259.55 503.94 248.27 504.02 245.19 492.68 242.13 481.34 239.27 470 236.71 458.67 234.6 447.33 233.03 435.99 232.07 424.66 231.76 413.32 232.13 401.98 233.16 390.65 234.79 379.31 236.95 367.97 239.54 356.64 242.44 345.3 245.5 333.97 248.58 322.63 259.86 312.65 271.2 302.4 282.57 292.12 293.94 282.04 305.3 272.4 316.61 263.37 327.84 255.13 338.96 247.79 349.95 241.41 360.78 236.04 371.42 231.62 381.86 228.08 392.06 225.32 402 223.16 416.38 220.68 421.08 219.93" stroke-dasharray="2 8" transform="rotate(48.48, 400, 400)" opacity="0.84"></path><path d="M422.37 232.57Q431.91 241.65 441.22 250.73 450.29 259.66 459.09 268.25 467.63 276.36 475.9 283.84 483.89 290.58 491.6 296.49 506.12 305.26 519.89 311.49 535.64 320.37 532.77 336.67 527.27 346.97 522.41 357.26 518.39 367.56 515.38 377.86 513.49 388.15 512.81 398.45 513.36 408.75 515.12 419.04 518.02 429.34 521.93 439.64 526.71 449.94 532.15 460.23 538.03 470.53 544.12 480.83 538.15 491.84 532.05 502.75 525.79 513.32 519.33 523.29 512.67 532.45 505.77 540.63 498.63 547.66 491.23 553.47 475.49 560.65 458.93 564.28 450.18 564.34 441.17 563.7 431.91 562.6 422.41 561.31 413.07 549.9 403.51 539 393.74 528.86 383.78 519.66 373.65 511.58 363.37 504.73 352.97 499.16 342.46 494.87 331.88 491.81 321.24 489.88 310.57 488.92 299.89 488.73 289.23 489.1 278.6 489.78 261.29 485.55 251.66 470.16 248.99 459.72 246.65 449.29 244.73 438.85 243.31 428.41 242.44 417.97 242.17 407.53 242.51 397.1 243.43 386.66 244.91 376.22 246.88 365.79 249.27 355.35 251.97 344.91 254.87 334.47 257.86 324.04 268.36 314.41 278.94 304.76 289.56 295.3 300.22 286.2 310.89 277.62 321.55 269.71 332.17 262.56 342.73 256.26 353.21 250.82 363.58 246.26 373.82 242.52 383.91 239.53 393.83 237.19 403.56 235.35 417.72 233.21 422.37 232.57" stroke-dasharray="6 7" transform="rotate(52.52, 400, 400)" opacity="0.28"></path><path d="M422.27 245.21Q430.56 253.68 438.63 262.17 446.48 270.53 454.11 278.64 461.52 286.37 468.7 293.58 482.3 305.76 495.29 315.74 507.36 321.96 518.97 326.15 524.58 332.47 519.41 347.24 514.66 356.84 510.51 366.43 507.1 376.03 504.56 385.63 502.98 395.22 502.4 404.82 502.86 414.41 504.33 424.01 506.76 433.61 510.07 443.2 514.14 452.8 518.83 462.39 523.98 471.99 529.41 481.58 523.92 491.53 518.35 501.15 512.66 510.26 506.85 518.69 494.67 532.47 481.96 543.23 468.23 548.74 453.85 551.4 438.35 550.55 422.19 548.66 413.07 538.21 403.79 528.17 394.36 518.73 384.79 510.05 375.12 502.27 365.35 495.49 355.5 489.77 345.6 485.13 335.67 481.56 325.72 478.99 315.77 477.35 305.84 476.49 295.94 476.27 286.1 476.51 270.07 472.55 261.13 458.53 258.69 448.99 256.57 439.44 254.85 429.9 253.58 420.35 252.82 410.81 252.58 401.26 252.88 391.72 253.71 382.17 255.03 372.63 256.8 363.08 258.96 353.54 261.44 343.99 264.14 334.45 266.98 324.9 276.68 315.93 286.46 307.13 296.3 298.66 306.19 290.65 316.12 283.21 326.07 276.42 336.01 270.35 345.93 265.04 355.81 260.49 365.63 256.68 375.38 253.57 385.02 251.08 394.55 249.12 403.95 247.57 417.73 245.76 422.27 245.21" stroke-dasharray="2 2" transform="rotate(56.56, 400, 400)" opacity="0.44"></path><path d="M420.8 257.86Q434.84 273.57 448.17 288.95 460.78 303.13 472.72 315.42 484.07 325.29 494.9 332.53 505.34 337.25 515.51 339.87 506.27 357.62 498.73 375.37 493.78 393.12 491.99 410.87 493.57 428.62 498.33 446.37 505.73 464.11 514.89 481.86 504.72 498.66 494.31 513.16 483.51 524.58 472.22 532.53 460.35 537.01 447.81 538.48 434.57 537.77 420.6 536.01 402.96 517.31 384.94 500.49 366.66 486.48 348.25 475.87 329.84 468.81 311.53 465.01 293.42 463.81 275.62 464.22 270.56 446.89 266.49 429.56 263.86 412.23 262.99 394.9 263.98 377.57 266.71 360.24 270.86 342.91 275.96 325.58 293.79 309.75 311.91 295.54 330.22 283.56 348.63 274.15 367.01 267.31 385.25 262.73 403.21 259.83 420.8 257.86 420.8 257.86 420.8 257.86" stroke-dasharray="6 7" transform="rotate(60.599999999999994, 400, 400)" opacity="0.21"></path><path d="M418.04 270.5Q430.01 284.94 441.41 299.15 452.3 312.48 462.71 324.34 472.72 334.29 482.41 342.07 491.86 347.63 501.2 351.16 493.35 367.42 487.1 383.68 483.04 399.95 481.58 416.21 482.85 432.47 486.73 448.73 492.85 465 500.61 481.26 491.27 495.1 481.82 506.64 472.15 515.46 462.18 521.41 451.81 524.63 440.98 525.55 429.64 524.84 417.74 523.37 401.13 506.46 384.32 490.99 367.41 477.7 350.5 467.09 333.68 459.36 317.03 454.44 300.62 451.96 284.51 451.32 279.98 435.71 276.41 420.1 274.14 404.49 273.4 388.88 274.25 373.27 276.62 357.65 280.27 342.04 284.85 326.43 300.99 312.84 317.43 300.98 334.09 291.19 350.91 283.61 367.81 278.13 384.69 274.47 409.75 271.31 418.04 270.5" stroke-dasharray="5 4" transform="rotate(64.64, 400, 400)" opacity="0.59"></path><path d="M414.17 283.14Q424.31 296.27 434.06 309.27 443.45 321.63 452.54 332.92 461.38 342.74 470.05 350.85 478.62 357.12 487.17 361.58 480.66 376.31 475.59 391.04 472.34 405.76 471.18 420.49 472.18 435.22 475.27 449.95 480.21 464.68 486.62 479.41 478.05 490.3 469.48 499.1 460.82 505.63 451.99 509.89 442.93 512.09 433.57 512.6 423.87 511.94 413.79 510.73 398.46 495.58 383.08 481.53 367.73 469.12 352.46 458.75 337.33 450.63 322.41 444.82 307.73 441.16 293.34 439.32 289.39 425.38 286.33 411.44 284.43 397.5 283.81 383.57 284.53 369.63 286.53 355.69 289.67 341.76 293.68 327.82 308.1 316.63 322.81 307.09 337.75 299.35 352.89 293.42 368.16 289.17 383.51 286.31 406.52 283.8 414.17 283.14" stroke-dasharray="1 7" transform="rotate(68.68, 400, 400)" opacity="0.95"></path><path d="M409.43 295.79Q418 307.57 426.32 319.3 434.43 330.59 442.37 341.13 450.19 350.62 457.94 358.82 465.67 365.58 473.45 370.85 468.22 384 464.22 397.15 461.68 410.3 460.77 423.44 461.53 436.59 463.93 449.74 467.82 462.89 472.95 476.04 465.14 484.16 457.4 490.54 441.77 497.29 425.81 499.66 417.51 499.05 408.98 498.09 395.18 484.7 381.42 472.12 367.76 460.72 354.23 450.82 340.88 442.63 327.73 436.22 314.82 431.58 302.16 428.57 298.82 416.26 296.28 403.95 294.72 391.64 294.22 379.33 294.81 367.02 296.47 354.72 299.08 342.41 302.49 330.1 315.18 321.3 328.12 313.95 341.29 308.07 354.67 303.6 368.21 300.4 381.88 298.24 402.53 296.3 409.43 295.79" stroke-dasharray="3 7" transform="rotate(72.72, 400, 400)" opacity="0.71"></path><path d="M404.1 308.43Q411.34 318.85 418.44 329.25 425.43 339.38 432.36 349.01 439.25 357.93 446.14 365.94 453.07 372.92 460.08 378.76 456.03 390.28 452.97 401.81 451.05 413.34 450.36 424.87 450.92 436.4 452.72 447.93 454.13 468.06 445.65 481 431.83 485.36 417.92 486.71 410.83 486.19 403.62 485.44 391.53 473.8 379.53 462.72 367.67 452.47 355.96 443.27 344.42 435.29 333.07 428.63 321.93 423.32 311.02 419.33 308.29 408.61 306.26 397.88 305.02 387.16 304.63 376.44 305.1 365.72 306.43 355 308.53 344.28 311.32 333.56 322.28 327.02 333.45 321.63 344.82 317.37 356.39 314.16 368.12 311.85 380 310.27 398.05 308.82 404.1 308.43" stroke-dasharray="4 1" transform="rotate(76.76, 400, 400)" opacity="0.34"></path><path d="M398.52 321.07Q404.62 330.09 410.66 339.12 416.67 348 422.68 356.57 428.7 364.7 434.75 372.24 442.48 387.07 441.85 404.92 440.45 414.8 439.95 424.68 440.35 434.56 441.64 444.44 435.18 466.74 422.2 473.47 410.15 473.62 398.03 472.8 387.78 462.88 377.64 453.34 367.63 444.35 357.77 436.05 348.06 428.58 338.51 422.01 329.14 416.4 319.94 411.77 317.82 402.6 316.27 393.43 315.33 384.26 315.03 375.09 315.4 365.92 316.42 356.75 323.75 340.72 338.86 330.16 348.44 327.26 358.18 325.07 368.07 323.49 378.1 322.39 393.39 321.35 398.52 321.07" stroke-dasharray="10 4" transform="rotate(80.80000000000001, 400, 400)" opacity="0.84"></path><path d="M393.03 333.72Q403.22 348.91 413.45 363.83 423.84 377.75 434.48 390.03 430.85 406.46 429.54 422.88 430.68 439.3 434.15 455.72 423.46 459.35 413.03 460.86 402.76 460.87 392.56 460.15 375.96 443.97 359.8 429.13 344.14 416.3 328.99 405.93 326.32 390.64 325.44 375.35 326.45 360.06 329.23 344.77 344.45 339.54 360.17 336.33 384.71 334.17 393.03 333.72" stroke-dasharray="6 11" transform="rotate(84.84, 400, 400)" opacity="0.47"></path><path d="M387.97 346.36Q396.33 358.64 404.8 370.83 413.43 382.55 422.28 393.43 419.97 406.51 419.13 419.59 416.48 440.08 404.45 448.12 395.94 447.99 387.56 447.51 374.71 434.59 362.19 422.43 350.02 411.39 338.19 401.75 336.42 389.48 335.85 377.22 336.53 364.95 338.4 352.68 350.28 349.73 362.51 347.92 381.52 346.64 387.97 346.36" stroke-dasharray="9 9" transform="rotate(88.88, 400, 400)" opacity="0.17"></path><path d="M383.66 359.01Q390.19 368.3 396.82 377.59 403.58 386.73 410.49 395.54 409.19 405.27 408.72 415.02 398.05 432.55 383.32 434.87 374.09 425.21 365.06 415.92 356.23 407.16 347.61 399.06 346.58 389.81 346.26 380.56 351.55 365.99 365.31 359.81 379.02 359.16 383.66 359.01" stroke-dasharray="5 7" transform="rotate(92.92, 400, 400)" opacity="0.37"></path><path d="M380.35 371.65Q389.59 384.16 399.11 396.59 393.86 415.97 380.11 422.22 368.5 409.54 357.27 397.6 371.51 375.11 380.35 371.65" stroke-dasharray="9 7" transform="rotate(96.96, 400, 400)" opacity="0.18"></path></g></svg>